<?xml version="1.0" standalone="no"?>
<!DOCTYPE svg PUBLIC "-//W3C//DTD SVG 20010904//EN"
 "http://www.w3.org/TR/2001/REC-SVG-20010904/DTD/svg10.dtd">
<svg version="1.0" xmlns="http://www.w3.org/2000/svg"
 width="260.000000pt" height="260.000000pt" viewBox="0 0 260.000000 260.000000"
 preserveAspectRatio="xMidYMid meet">
<metadata>
Created by potrace 1.14, written by Peter Selinger 2001-2017
</metadata>
<g transform="translate(0.000000,260.000000) scale(0.100000,-0.100000)"
fill="#000000" stroke="none">
<path d="M0 1300 l0 -1300 1300 0 1300 0 0 1300 0 1300 -1300 0 -1300 0 0
-1300z m934 863 c10 -21 226 -528 263 -621 4 -10 -16 -12 -93 -10 l-98 3 -21
53 -20 53 -129 -3 -129 -3 -20 -52 -20 -53 -93 0 c-52 0 -94 2 -94 5 0 3 61
152 136 330 l137 325 83 0 c81 0 84 -1 98 -27z m-704 -228 l0 -245 125 0 c69
0 125 -4 125 -8 0 -5 -13 -40 -28 -78 l-29 -69 -186 -3 -187 -2 0 325 0 325
90 0 90 0 0 -245z m1408 168 l-3 -78 -97 -3 -98 -3 0 -244 0 -245 -90 0 -90 0
0 245 0 244 -97 3 -98 3 -3 78 -3 77 291 0 291 0 -3 -77z m242 -248 l0 -325
-95 0 -95 0 0 325 0 325 95 0 95 0 0 -325z m355 151 l130 -168 3 171 2 171 90
0 90 0 0 -325 0 -325 -82 0 -83 0 -135 175 -135 174 -3 -174 -2 -175 -90 0
-90 0 0 325 0 326 87 -3 88 -3 130 -169z m-1434 -558 c52 -15 113 -68 138
-121 27 -56 28 -146 2 -203 -84 -186 -361 -186 -447 0 -73 156 41 333 215 335
29 1 71 -4 92 -11z m599 -125 c24 -73 47 -130 51 -125 4 4 17 41 29 82 12 41
28 96 36 123 l16 47 62 0 63 0 -76 -230 -76 -230 -55 0 -55 0 -44 130 c-25 72
-48 127 -53 122 -4 -4 -27 -63 -49 -130 l-42 -123 -56 3 -55 3 -67 205 c-37
113 -70 215 -73 228 -6 21 -4 22 57 22 l64 0 39 -130 c21 -71 41 -126 45 -122
4 4 23 59 44 122 21 63 42 121 48 128 6 8 27 12 56 10 l46 -3 45 -132z m-1050
105 c64 -33 82 -63 82 -136 0 -106 -52 -152 -182 -161 l-75 -6 -3 -67 -3 -68
-59 0 -60 0 0 230 0 230 128 0 c113 0 133 -3 172 -22z m1710 -28 l0 -50 -120
0 -120 0 0 -40 0 -40 110 0 110 0 0 -45 0 -44 -107 -3 -108 -3 -3 -37 -3 -38
120 0 121 0 0 -55 0 -55 -182 2 -183 3 -3 228 -2 227 185 0 185 0 0 -50z m390
27 c96 -51 107 -184 21 -248 -17 -12 -31 -26 -31 -31 0 -4 19 -36 43 -71 24
-34 46 -68 51 -75 5 -9 -10 -12 -63 -12 l-69 0 -47 70 c-40 60 -51 70 -76 70
l-29 0 0 -70 0 -71 -62 3 -63 3 -3 228 -2 227 143 0 c130 0 148 -2 187 -23z
m-773 -540 c28 -15 54 -31 58 -36 4 -8 -60 -111 -68 -111 -1 0 -29 11 -62 25
-95 39 -163 29 -153 -22 3 -18 34 -31 160 -67 130 -38 181 -140 125 -247 -35
-66 -104 -99 -206 -99 -43 0 -101 7 -131 16 -50 15 -122 53 -133 71 -3 5 14
31 37 59 l42 51 51 -29 c88 -50 203 -49 203 2 0 24 -16 33 -115 59 -148 40
-197 86 -197 180 1 80 43 139 119 167 63 24 205 13 270 -19z m724 21 c44 -15
116 -64 129 -87 8 -16 1 -25 -45 -60 -30 -23 -57 -41 -60 -41 -4 0 -23 12 -42
28 -46 35 -117 38 -160 6 -85 -63 -82 -202 6 -261 56 -38 115 -29 172 23 l25
24 57 -40 c31 -23 57 -44 57 -49 0 -16 -78 -81 -120 -100 -63 -29 -187 -29
-250 0 -142 64 -206 224 -154 382 22 65 101 147 164 170 54 18 173 22 221 5z
m-2119 -103 c35 -58 66 -105 70 -105 4 0 35 47 70 105 l63 104 88 1 87 0 0
-285 0 -285 -80 0 -80 0 -2 162 -3 161 -68 -106 c-38 -59 -72 -107 -76 -107
-5 0 -39 48 -77 108 l-69 107 -3 -162 -2 -163 -75 0 -75 0 0 285 0 285 84 0
85 0 63 -105z m588 -65 c0 -184 8 -223 51 -254 34 -23 93 -21 124 6 36 32 44
79 45 261 l0 157 80 0 80 0 0 -173 c0 -257 -24 -327 -132 -381 -43 -21 -66
-26 -131 -26 -99 0 -146 14 -196 56 -66 57 -75 91 -79 322 l-4 202 81 0 81 0
0 -170z m1090 -115 l0 -285 -80 0 -80 0 0 285 0 285 80 0 80 0 0 -285z m592
-260 c0 -5 -5 -10 -11 -12 -8 -1 -7 0 0 4 8 4 7 8 -2 15 -11 8 -11 9 -1 6 8
-2 14 -8 14 -13z"/>
<path d="M802 1881 c-18 -44 -32 -85 -32 -90 0 -11 122 -16 132 -5 6 5 -49
151 -62 167 -4 4 -21 -28 -38 -72z"/>
<path d="M658 1335 c-61 -34 -78 -132 -33 -191 64 -84 191 -52 211 52 8 46 -1
78 -34 115 -34 38 -100 49 -144 24z"/>
<path d="M170 1285 l0 -65 48 0 c63 0 92 21 92 65 0 44 -29 65 -92 65 l-48 0
0 -65z"/>
<path d="M2250 1291 l0 -61 56 0 c73 0 94 12 94 54 0 45 -20 59 -91 64 l-59 4
0 -61z"/>
</g>
</svg>
